# File created by Blade
# Date/Time:  Thu Sep 25 18:48:06 2014
# Frame Rate: 120.000 fps
#------------------------------------------------------
:FULLY-SPECIFIED
:DEGREES
469
root 0.052523 32.781090 -5.657560 102.431886 4.824837 -0.833809
Spine 58.832569 -0.544214 2.628426
Head -28.763649 -2.353623 9.119511
LeftShoulder -22.959919 25.947965 14.913822
LeftArm -74.839112 27.895437 -104.979358
LeftForeArm 8.817440 -0.000000 23.283872
LeftHand -15.245306 0.000000 -69.468361
LeftHandThumb1 -26.253704 0.000000 33.147579
RightShoulder -25.092001 -27.039277 -34.750527
RightArm -58.079397 -20.655688 90.852806
RightForeArm -25.975343 -0.000000 4.982736
RightHand 1.751932 0.000000 71.046513
RightHandThumb1 -24.326973 -0.000000 -32.862282
LeftUpLeg -110.259539 2.595081 -9.127784
LeftLeg -3.547168 -0.000000 0.000000
LeftFoot 7.447414 2.609943 -11.141669
LeftToeBase 12.707210 -0.000000 -0.000000
RightUpLeg -109.248705 0.952396 14.950573
RightLeg -0.200116 -0.000000 0.000000
RightFoot 5.428691 -2.278520 2.289071
RightToeBase 0.300804 -0.000000 -0.000000
470
root 0.059821 32.777748 -5.685533 102.353272 4.867380 -0.842371
Spine 58.965378 -0.522330 2.757286
Head -28.360041 -2.554405 8.988971
LeftShoulder -22.976363 25.868500 14.922207
LeftArm -75.041519 27.952834 -105.106508
LeftForeArm 8.707023 -0.000000 23.379675
LeftHand -15.285941 -0.000000 -69.417553
LeftHandThumb1 -26.253704 0.000000 33.147579
RightShoulder -25.019761 -26.780360 -34.920152
RightArm -58.468798 -20.660523 90.991230
RightForeArm -25.885682 0.000000 5.073283
RightHand 1.743792 -0.000000 70.996393
RightHandThumb1 -24.326973 -0.000000 -32.862282
LeftUpLeg -110.266412 2.581034 -9.122103
LeftLeg -3.477409 -0.000000 0.000000
LeftFoot 7.414926 2.625125 -11.196763
LeftToeBase 12.790779 -0.000000 -0.000000
RightUpLeg -109.262372 0.944831 14.999526
RightLeg -0.102008 -0.000000 0.000000
RightFoot 5.410123 -2.267291 2.319845
RightToeBase 0.316056 -0.000000 -0.000000
471
root 0.067556 32.773615 -5.713274 102.252443 4.905174 -0.844529
Spine 59.067805 -0.612190 2.818653
Head -27.785961 -2.882619 8.625558
LeftShoulder -22.921567 25.332441 14.956805
LeftArm -75.840155 27.740328 -105.377375
LeftForeArm 8.632109 -0.000000 23.563782
LeftHand -15.328976 -0.000000 -69.372735
LeftHandThumb1 -26.253704 0.000000 33.147579
RightShoulder -25.227995 -28.580127 -34.643723
RightArm -56.193381 -20.567884 90.395748
RightForeArm -26.287631 0.000000 4.874245
RightHand 1.766583 0.000000 70.779976
RightHandThumb1 -24.326973 -0.000000 -32.862282
LeftUpLeg -110.255852 2.561883 -9.145094
LeftLeg -3.408546 -0.000000 0.000000
LeftFoot 7.430580 2.536903 -11.159212
LeftToeBase 12.791366 -0.000000 -0.000000
RightUpLeg -109.258855 0.934014 15.074500
RightLeg 0.003074 -0.000000 -0.000000
RightFoot 5.387188 -2.229916 2.339619
RightToeBase 0.294404 -0.000000 -0.000000
472
root 0.075260 32.769908 -5.740199 102.151327 4.910820 -0.843574
Spine 59.204293 -0.618486 2.866267
Head -27.359992 -3.001160 8.559501
LeftShoulder -22.891141 24.858597 14.982482
LeftArm -76.451709 27.574072 -105.522744
LeftForeArm 8.569643 0.000000 23.729981
LeftHand -15.390157 -0.000000 -69.321430
LeftHandThumb1 -26.253704 0.000000 33.147579
RightShoulder -25.025326 -27.845457 -35.196653
RightArm -56.984526 -20.570515 90.737567
RightForeArm -26.375239 0.000000 4.863949
RightHand 1.812887 -0.000000 70.847499
RightHandThumb1 -24.326973 -0.000000 -32.862282
LeftUpLeg -110.232100 2.539696 -9.173098
LeftLeg -3.346220 -0.000000 0.000000
LeftFoot 7.417416 2.516807 -11.183954
LeftToeBase 12.782397 -0.000000 -0.000000
RightUpLeg -109.254735 0.917338 15.126808
RightLeg 0.098477 -0.000000 -0.000000
RightFoot 5.368930 -2.189022 2.347322
RightToeBase 0.300877 -0.000000 -0.000000
473
root 0.082236 32.765489 -5.768816 102.040417 4.930933 -0.836433
Spine 59.338797 -0.630133 2.971607
Head -26.951929 -3.175604 8.379039
LeftShoulder -22.832011 24.489756 15.070811
LeftArm -76.901254 27.505863 -105.762341
LeftForeArm 8.472306 0.000000 23.804964
LeftHand -15.341326 -0.000000 -69.255419
LeftHandThumb1 -26.253704 0.000000 33.147579
RightShoulder -25.003236 -27.728774 -35.407187
RightArm -57.073160 -20.533360 90.815798
RightForeArm -26.456706 -0.000000 4.867843
RightHand 1.811181 -0.000000 70.819781
RightHandThumb1 -24.326973 -0.000000 -32.862282
LeftUpLeg -110.205024 2.509889 -9.187646
LeftLeg -3.276763 -0.000000 0.000000
LeftFoot 7.439296 2.535475 -11.407037
LeftToeBase 12.650665 -0.000000 -0.000000
RightUpLeg -109.238559 0.893674 15.178256
RightLeg 0.183606 -0.000000 -0.000000
RightFoot 5.357721 -2.169314 2.334311
RightToeBase 0.253903 -0.000000 -0.000000
474
root 0.087194 32.761927 -5.797709 101.935478 4.990563 -0.832888
Spine 59.399195 -0.722911 3.104957
Head -26.371866 -3.446214 7.911546
LeftShoulder -22.747237 24.054210 15.021929
LeftArm -77.549419 27.351277 -106.047629
LeftForeArm 8.276060 -0.000000 24.019177
LeftHand -15.380558 -0.000000 -69.188812
LeftHandThumb1 -26.253704 0.000000 33.147579
RightShoulder -24.697893 -27.002848 -35.751692
RightArm -58.120198 -20.490029 91.276013
RightForeArm -26.155755 0.000000 5.156660
RightHand 1.734249 -0.000000 70.843579
RightHandThumb1 -24.326973 -0.000000 -32.862282
LeftUpLeg -110.197102 2.492397 -9.184131
LeftLeg -3.198961 -0.000000 0.000000
LeftFoot 7.418891 2.485701 -11.219387
LeftToeBase 12.845854 -0.000000 -0.000000
RightUpLeg -109.211745 0.883743 15.257977
RightLeg 0.252092 -0.000000 -0.000000
RightFoot 5.344051 -2.163011 2.332661
RightToeBase 0.276315 -0.000000 -0.000000
475
root 0.095137 32.757476 -5.825296 101.836183 5.029411 -0.816749
Spine 59.416396 -0.830040 3.183146
Head -25.711658 -3.687553 7.481294
LeftShoulder -22.588066 23.467668 15.023079
LeftArm -78.299288 26.990402 -106.269810
LeftForeArm 8.197105 -0.000000 24.204098
LeftHand -15.446142 -0.000000 -69.077874
LeftHandThumb1 -26.253704 0.000000 33.147579
RightShoulder -24.594788 -27.506369 -36.050187
RightArm -57.414134 -20.402447 91.285352
RightForeArm -26.320068 0.000000 5.021781
RightHand 1.762655 -0.000000 70.842861
RightHandThumb1 -24.326973 -0.000000 -32.862282
LeftUpLeg -110.176297 2.450478 -9.180833
LeftLeg -3.121358 -0.000000 0.000000
LeftFoot 7.372563 2.510693 -11.278213
LeftToeBase 12.849086 -0.000000 -0.000000
RightUpLeg -109.189314 0.856175 15.338088
RightLeg 0.309821 -0.000000 -0.000000
RightFoot 5.330146 -2.133426 2.318941
RightToeBase 0.244729 -0.000000 -0.000000
476
root 0.101057 32.753008 -5.854791 101.730941 5.064358 -0.805019
Spine 59.447691 -0.946651 3.228579
Head -25.121444 -3.793523 7.091055
LeftShoulder -22.611264 23.242642 14.949363
LeftArm -78.681224 26.952680 -106.590737
LeftForeArm 7.977376 -0.000000 24.344238
LeftHand -15.473366 0.000000 -69.012672
LeftHandThumb1 -26.253704 0.000000 33.147579
RightShoulder -24.398156 -27.451985 -36.352924
RightArm -57.322294 -20.301607 91.401655
RightForeArm -26.401637 0.000000 4.887884
RightHand 1.831491 0.000000 70.843741
RightHandThumb1 -24.326973 -0.000000 -32.862282
LeftUpLeg -110.158068 2.411222 -9.225078
LeftLeg -3.061916 -0.000000 0.000000
LeftFoot 7.385101 2.422207 -11.262557
LeftToeBase 12.913030 -0.000000 -0.000000
RightUpLeg -109.154833 0.828933 15.393193
RightLeg 0.347503 -0.000000 -0.000000
RightFoot 5.330290 -2.124827 2.297406
RightToeBase 0.234427 -0.000000 -0.000000
477
root 0.108353 32.748216 -5.885398 101.612412 5.075820 -0.785543
Spine 59.479637 -0.953855 3.297307
Head -24.525815 -3.949293 6.972476
LeftShoulder -22.533197 23.034495 14.972901
LeftArm -78.866756 26.792730 -106.620061
LeftForeArm 8.065282 0.000000 24.466948
LeftHand -15.454803 0.000000 -69.128429
LeftHandThumb1 -26.253704 0.000000 33.147579
RightShoulder -24.230998 -27.155976 -36.483440
RightArm -57.911942 -20.443782 91.974479
RightForeArm -25.819952 -0.000000 5.186461
RightHand 1.675842 0.000000 70.876682
RightHandThumb1 -24.326973 -0.000000 -32.862282
LeftUpLeg -110.107349 2.369005 -9.258931
LeftLeg -3.022590 -0.000000 0.000000
LeftFoot 7.384475 2.400719 -11.295234
LeftToeBase 13.002684 -0.000000 -0.000000
RightUpLeg -109.122160 0.783231 15.421400
RightLeg 0.396769 -0.000000 -0.000000
RightFoot 5.308339 -2.087142 2.365329
RightToeBase 0.292240 -0.000000 -0.000000
